<svg width="60" height="60" viewBox="0 0 60 60" fill="none" xmlns="http://www.w3.org/2000/svg">
<g clip-path="url(#clip0_6_246)">
<path d="M22.1949 47.75C15.0424 47.125 8.73245 44.47 4.61995 40.365C2.27995 38.025 0.859947 35.485 0.219947 32.4925C-0.0750527 31.1325 -0.0725527 28.8725 0.219947 27.5C1.11245 23.34 3.80245 19.7 8.03495 16.925C17.6899 10.5925 32.48 10.625 42.045 17C43.315 17.845 44.1349 18.5175 45.2849 19.65C46.7349 21.0825 47.7549 22.505 48.8299 24.6C48.8699 24.675 49.0674 24.775 49.2699 24.815C49.9449 24.955 50.8524 25.485 51.5799 26.165C52.1449 26.69 52.5825 27.265 53.66 28.8975C54.7475 30.5425 59.67 38.14 59.97 38.6375C60.085 38.8325 59.8549 39.1425 59.5949 39.1425C59.4124 39.1425 59.2799 39.0175 59.0099 38.5925L56.22 34.2625C51.47 26.9075 51.2124 26.5675 49.8899 25.905L49.1949 25.555H47.1524C45.1124 25.555 45.1099 25.5575 45.0599 25.7725C44.7899 26.9475 44.7399 27.2375 44.7999 27.2925C44.8374 27.3275 45.995 27.9875 47.375 28.7575L49.8799 30.1625L49.7249 30.49C49.6374 30.67 49.5399 30.82 49.5049 30.82C49.4699 30.82 47.3599 29.65 44.8174 28.2225C42.2724 26.7975 40.0424 25.5875 39.8624 25.5375C39.1374 25.3375 38.0274 26.1375 38.0274 26.86C38.0274 27.59 38.2449 27.805 42.7124 31.4625C45.4999 33.7475 47.0949 35.1175 47.3374 35.4425C47.7824 36.0325 48.2299 36.9025 48.6449 37.9725C49.3699 39.8575 50.5524 40.9075 52.4899 41.3925L53.1274 41.5525L53.0749 41.9025C53.0601 42.0366 53.029 42.1684 52.9825 42.295C52.9 42.3875 51.615 41.9775 50.8725 41.62C49.71 41.0625 48.9099 40.2675 48.1249 38.885C47.7831 38.9878 47.4454 39.1037 47.1124 39.2325C46.1349 39.5875 46.0874 39.6175 45.1624 40.52C41.2224 44.365 35.5724 46.8225 28.7474 47.6575C27.6399 47.795 23.3724 47.855 22.1949 47.75V47.75ZM28.9874 46.5675C32.1174 46.1525 34.5449 45.5325 37.0874 44.4925C39.7549 43.4 42.2699 41.83 44.0299 40.16L44.7224 39.5L42.9774 38.6675C41.1124 37.775 40.9274 37.6275 40.6899 36.83C40.5399 36.33 40.71 35.7925 41.185 35.2775L41.5574 34.875L40.7474 34.26C40.1074 33.7725 39.9074 33.56 39.7824 33.235C39.6843 32.9822 39.6509 32.7089 39.6854 32.4399C39.7199 32.1709 39.8211 31.9148 39.9799 31.695L40.2249 31.35L37.6674 30.9C36.6917 30.7371 35.7198 30.552 34.7524 30.345C34.5399 30.2625 34.3499 30.1309 34.1978 29.9611C34.0458 29.7912 33.936 29.5878 33.8774 29.3675C33.8224 29.1375 35.0774 23.0175 35.3574 22.1425C35.4552 21.9174 35.6013 21.7165 35.7854 21.554C35.9694 21.3916 36.1869 21.2716 36.4224 21.2025C36.8449 21.125 44.3849 22.45 44.7599 22.67C45.3549 23.015 45.5424 23.575 45.3549 24.4325L45.275 24.7925H45.6924C45.9224 24.7925 46.4674 24.7625 46.8999 24.73L47.6899 24.6675L47.2975 23.9425C46.1125 21.7375 43.9724 19.5225 41.3274 17.7625C40.0924 16.9425 37.4599 15.645 35.8749 15.0775C33.4126 14.2242 30.8598 13.6588 28.2674 13.3925C26.8299 13.2425 23.0624 13.2425 21.6674 13.395C18.3199 13.76 15.2824 14.5175 12.6249 15.65C6.47495 18.2725 2.33745 22.615 1.27995 27.5675C1.00495 28.86 0.979947 31.125 1.23495 32.3025C1.79495 34.9025 3.01745 37.155 5.00745 39.2525C9.05745 43.52 15.2499 46.1425 22.6724 46.7375C23.6649 46.815 27.9749 46.7 28.9874 46.5675V46.5675ZM27.6299 41.9075C27.2474 41.7975 26.8599 41.34 26.7799 40.9075C26.7249 40.6225 26.7899 40.4275 27.1949 39.6425C28.8349 36.4675 29.5474 33.55 29.5474 30.005C29.5474 26.58 28.9174 23.9175 27.3499 20.7225C27.0124 20.0375 26.7374 19.4 26.7374 19.31C26.7374 18.97 27.0224 18.4775 27.3299 18.285C27.7524 18.0175 28.4599 18.0675 28.7999 18.385C28.9299 18.51 29.2674 19.0625 29.5499 19.62C30.6724 21.82 31.4399 24.2375 31.8199 26.7525C32.0549 28.31 32.1024 31.26 31.9149 32.685C31.5998 35.2102 30.8735 37.6669 29.7649 39.9575C29.0899 41.345 28.6699 41.9175 28.3149 41.9175C28.2296 41.9196 28.1448 41.9322 28.0624 41.955C27.9165 41.9695 27.7692 41.9533 27.6299 41.9075ZM23.0649 39.52C22.4799 39.3475 22.0549 38.6275 22.2249 38.0875C22.2674 37.9575 22.5424 37.355 22.8399 36.75C24.0788 34.275 24.6059 31.5045 24.3624 28.7475C24.1524 26.5325 23.7549 25.135 22.7549 23.09C22.0824 21.7175 22.0524 21.505 22.4424 20.955C22.8124 20.43 23.7399 20.3425 24.2249 20.79C24.5624 21.1 25.6124 23.29 26.0149 24.53C27.3541 28.6413 27.1479 33.0999 25.4349 37.07C24.5549 39.135 23.9374 39.7725 23.0649 39.52V39.52ZM18.3599 37.0975C18.1727 37.0066 18.0076 36.8758 17.8763 36.7143C17.745 36.5528 17.6506 36.3644 17.5999 36.1625C17.5474 35.9275 17.6349 35.6675 18.0674 34.795C19.6474 31.595 19.6649 28.51 18.1174 25.3825C17.4399 24.0075 17.4249 23.735 17.9999 23.1925C18.2824 22.925 18.4024 22.8775 18.7999 22.8775C19.4674 22.8775 19.8149 23.215 20.4099 24.44C21.3274 26.325 21.7049 27.96 21.6999 30.055C21.6999 32.205 21.3474 33.685 20.3674 35.6725C19.8049 36.81 19.5274 37.11 18.9674 37.1875C18.7607 37.206 18.5525 37.1751 18.3599 37.0975V37.0975ZM13.9674 34.8425C13.6278 34.6627 13.3714 34.3579 13.2524 33.9925C13.1449 33.6125 13.2324 33.31 13.6649 32.6C14.2199 31.6875 14.3499 31.2 14.3499 30.005C14.3499 28.8125 14.2199 28.3225 13.6649 27.41C13.5004 27.1491 13.3599 26.8738 13.2449 26.5875C13.0674 25.9875 13.5674 25.25 14.2399 25.1225C14.8099 25.015 15.2024 25.2725 15.7274 26.09C16.4712 27.2709 16.8659 28.6381 16.8659 30.0338C16.8659 31.4294 16.4712 32.7966 15.7274 33.9775C15.1899 34.8075 14.5924 35.1025 13.9674 34.8425V34.8425ZM46.6924 38.525C47.1999 38.3425 47.6399 38.1725 47.6674 38.1425C47.6974 38.115 47.5999 37.79 47.4499 37.42C47.1449 36.665 47.1949 36.6825 46.1149 36.89C44.9449 37.115 44.2674 36.915 42.9899 35.975C42.6399 35.7175 42.2824 35.5075 42.1899 35.5075C42.0999 35.5075 41.9024 35.64 41.7474 35.805C41.4224 36.155 41.3725 36.705 41.6375 37.03C41.87 37.3125 45.0799 38.84 45.4624 38.8475C45.6299 38.8525 46.1849 38.7075 46.6924 38.525V38.525ZM46.1874 36.0675C46.6624 35.9725 46.7149 35.94 46.6324 35.7875C46.5424 35.6175 42.1024 31.9325 41.7174 31.7075C41.3999 31.5225 41.1424 31.565 40.8799 31.8475C40.1074 32.6725 40.1974 32.8475 42.1949 34.38C44.6049 36.225 44.8599 36.335 46.1874 36.0675ZM40.2274 30.49C40.2274 30.465 39.7249 30.0325 39.1074 29.5275C37.5874 28.275 37.2624 27.8075 37.2624 26.8825C37.2624 26.1075 37.7774 25.3625 38.6074 24.9325C39.0979 24.7124 39.6478 24.6623 40.17 24.79C40.465 24.885 41.7899 25.6025 43.6274 26.66L44.015 26.8825L44.3349 25.3675C44.6599 23.8175 44.6674 23.4125 44.3649 23.3175C43.0547 23.0668 41.7422 22.8284 40.4274 22.6025C36.7449 21.9525 36.3424 21.915 36.1724 22.1925C36.0799 22.3425 34.6799 28.8325 34.6799 29.11C34.6799 29.2475 34.7499 29.42 34.8349 29.49C34.9199 29.5625 36.1149 29.82 37.4899 30.065C40.1449 30.5425 40.2274 30.555 40.2274 30.49Z" fill="#FF9B38"/>
</g>
<defs>
<clipPath id="clip0_6_246">
<rect width="60" height="60" fill="white"/>
</clipPath>
</defs>
</svg>
