<svg width="60" height="60" viewBox="0 0 60 60" fill="none" xmlns="http://www.w3.org/2000/svg">
<path d="M0 15C0 13.0109 0.790176 11.1032 2.1967 9.6967C3.60322 8.29018 5.51088 7.5 7.5 7.5H52.5C54.4891 7.5 56.3968 8.29018 57.8033 9.6967C59.2098 11.1032 60 13.0109 60 15V18.75H0V15ZM0 26.25V45C0 46.9891 0.790176 48.8968 2.1967 50.3033C3.60322 51.7098 5.51088 52.5 7.5 52.5H52.5C54.4891 52.5 56.3968 51.7098 57.8033 50.3033C59.2098 48.8968 60 46.9891 60 45V26.25H0ZM11.25 33.75H15C15.9946 33.75 16.9484 34.1451 17.6516 34.8484C18.3549 35.5516 18.75 36.5054 18.75 37.5V41.25C18.75 42.2446 18.3549 43.1984 17.6516 43.9016C16.9484 44.6049 15.9946 45 15 45H11.25C10.2554 45 9.30161 44.6049 8.59835 43.9016C7.89509 43.1984 7.5 42.2446 7.5 41.25V37.5C7.5 36.5054 7.89509 35.5516 8.59835 34.8484C9.30161 34.1451 10.2554 33.75 11.25 33.75V33.75Z" fill="#FF9B38"/>
</svg>
