<svg width="30" height="21" viewBox="0 0 30 21" fill="none" xmlns="http://www.w3.org/2000/svg">
<path d="M11.0089 10.5C11.0089 11.4567 11.4149 12.3743 12.1376 13.0508C12.8602 13.7273 13.8404 14.1074 14.8624 14.1074C15.8844 14.1074 16.8645 13.7273 17.5872 13.0508C18.3098 12.3743 18.7158 11.4567 18.7158 10.5C18.7158 9.54327 18.3098 8.62572 17.5872 7.94921C16.8645 7.2727 15.8844 6.89264 14.8624 6.89264C13.8404 6.89264 12.8602 7.2727 12.1376 7.94921C11.4149 8.62572 11.0089 9.54327 11.0089 10.5V10.5ZM29.8013 9.66902C26.5397 3.23696 21.6093 0 15 0C8.38722 0 3.46033 3.23696 0.198676 9.67224C0.0678502 9.93157 0 10.2148 0 10.5016C0 10.7884 0.0678502 11.0716 0.198676 11.331C3.46033 17.763 8.39066 21 15 21C21.6128 21 26.5397 17.763 29.8013 11.3278C30.0662 10.806 30.0662 10.2005 29.8013 9.66902V9.66902ZM14.8624 16.1687C11.5181 16.1687 8.80697 13.6307 8.80697 10.5C8.80697 7.36933 11.5181 4.83129 14.8624 4.83129C18.2066 4.83129 20.9178 7.36933 20.9178 10.5C20.9178 13.6307 18.2066 16.1687 14.8624 16.1687Z" fill="#101010"/>
</svg>
