<svg width="27" height="27" viewBox="0 0 27 27" fill="none" xmlns="http://www.w3.org/2000/svg">
<path d="M13.125 0C10.5291 0 7.99154 0.769768 5.83315 2.21196C3.67475 3.65415 1.99249 5.704 0.999087 8.10228C0.00568684 10.5006 -0.254232 13.1396 0.252199 15.6856C0.75863 18.2316 2.00866 20.5702 3.84423 22.4058C5.67979 24.2413 8.01845 25.4914 10.5644 25.9978C13.1104 26.5042 15.7494 26.2443 18.1477 25.2509C20.546 24.2575 22.5959 22.5753 24.038 20.4169C25.4802 18.2585 26.25 15.7209 26.25 13.125C26.25 9.64403 24.8672 6.30564 22.4058 3.84422C19.9444 1.38281 16.606 0 13.125 0V0ZM13.125 21.5625C12.8469 21.5625 12.575 21.48 12.3437 21.3255C12.1125 21.171 11.9322 20.9514 11.8258 20.6944C11.7194 20.4374 11.6915 20.1547 11.7458 19.8819C11.8 19.6091 11.934 19.3585 12.1306 19.1619C12.3273 18.9652 12.5779 18.8313 12.8507 18.777C13.1234 18.7228 13.4062 18.7506 13.6632 18.857C13.9201 18.9635 14.1397 19.1437 14.2943 19.375C14.4488 19.6062 14.5313 19.8781 14.5313 20.1562C14.5313 20.5292 14.3831 20.8869 14.1194 21.1506C13.8557 21.4143 13.498 21.5625 13.125 21.5625V21.5625ZM14.1956 14.2931V16.6378H12.0863V12.1875H14.0784C14.6693 12.1875 15.236 11.9528 15.6539 11.5349C16.0717 11.1171 16.3064 10.5504 16.3064 9.95953C16.3064 9.36864 16.0717 8.80194 15.6539 8.38412C15.236 7.96629 14.6693 7.73156 14.0784 7.73156H12.6722C12.0819 7.73231 11.516 7.96713 11.0986 8.38453C10.6812 8.80193 10.4464 9.36783 10.4456 9.95812V10.5563H8.33626V9.95812C8.33775 8.80888 8.79513 7.70717 9.60804 6.89479C10.4209 6.08242 11.5229 5.62574 12.6722 5.625H14.0784C15.2163 5.6276 16.3075 6.07747 17.1166 6.87751C17.9257 7.67756 18.3878 8.76364 18.4031 9.90139C18.4185 11.0391 17.986 12.1373 17.1988 12.9589C16.4116 13.7806 15.333 14.2598 14.1956 14.2931Z" fill="#101010"/>
</svg>
