<svg width="60" height="60" viewBox="0 0 60 60" fill="none" xmlns="http://www.w3.org/2000/svg">
<path d="M28.4063 34.2773C29.0391 33.6445 30.129 33.6445 30.7618 34.2773L39.7852 43.3008C41.4493 44.9648 43.6641 45.8789 46.0079 45.8789H47.7774L36.3985 57.2578C32.8477 60.7148 27.0821 60.7148 23.5313 57.2578L12.1055 45.8438H13.1954C15.5391 45.8438 17.754 44.9297 19.418 43.2656L28.4063 34.2773V34.2773ZM30.7618 25.6523C30.0118 26.2969 29.0508 26.3086 28.4063 25.6523L19.418 16.6641C17.754 14.8945 15.5391 14.0859 13.1954 14.0859H12.1055L23.5196 2.66719C27.0821 -0.888982 32.8477 -0.888982 36.3985 2.66719L47.7891 14.0508H46.0079C43.6641 14.0508 41.4493 14.9648 39.7852 16.6289L30.7618 25.6523V25.6523ZM13.1954 16.7227C14.8126 16.7227 16.3008 17.3789 17.543 18.5273L26.5313 27.5156C27.3751 28.2539 28.4766 28.7813 29.5899 28.7813C30.6915 28.7813 31.793 28.2539 32.6368 27.5156L41.6602 18.4922C42.8087 17.3555 44.3907 16.6992 46.0079 16.6992H50.4258L57.2579 23.5313C60.8087 27.082 60.8087 32.8477 57.2579 36.3984L50.4258 43.2305H46.0079C44.3907 43.2305 42.8087 42.5742 41.6602 41.4258L32.6368 32.4023C31.0079 30.7734 28.1602 30.7734 26.5313 32.4141L17.543 41.3906C16.3008 42.5391 14.8126 43.1953 13.1954 43.1953H9.46647L2.66725 36.3984C-0.888921 32.8477 -0.888921 27.082 2.66725 23.5313L9.46647 16.7227H13.1954V16.7227Z" fill="#FF9B38"/>
</svg>
